inDegrees=no
num_controls=7
num_derivatives=13
num_iterations=149
num_multipliers=7
num_parameters=0
num_slacks=7
num_states=26
objective=6.044331
objective_accelerations=0.992033
objective_balance=0.077267
objective_effort=0.694900
objective_height=4.185086
objective_ligament=0.095044
solver_duration=1734.406092
status=Solve_Succeeded
success=true
DataType=double
version=3
OpenSimVersion=4.4-2022-07-23-0e9fedc
endheader
time	/jointset/ground_pelvis/pelvis_tilt/value	/jointset/ground_pelvis/pelvis_tx/value	/jointset/ground_pelvis/pelvis_ty/value	/jointset/hip_l/hip_flexion_l/value	/jointset/hip_l/hip_adduction_l/value	/jointset/hip_l/hip_rotation_l/value	/jointset/back/lumbar_extension/value	/jointset/patellofemoral_l/patellar_flexion_l/value	/jointset/knee_l/knee_flexion_l/value	/jointset/knee_l/knee_adduction_l/value	/jointset/knee_l/knee_rotation_l/value	/jointset/ankle_l/ankle_angle_l/value	/jointset/subtalar_l/subtalar_angle_l/value	/jointset/ground_pelvis/pelvis_tilt/speed	/jointset/ground_pelvis/pelvis_tx/speed	/jointset/ground_pelvis/pelvis_ty/speed	/jointset/hip_l/hip_flexion_l/speed	/jointset/hip_l/hip_adduction_l/speed	/jointset/hip_l/hip_rotation_l/speed	/jointset/back/lumbar_extension/speed	/jointset/patellofemoral_l/patellar_flexion_l/speed	/jointset/knee_l/knee_flexion_l/speed	/jointset/knee_l/knee_adduction_l/speed	/jointset/knee_l/knee_rotation_l/speed	/jointset/ankle_l/ankle_angle_l/speed	/jointset/subtalar_l/subtalar_angle_l/speed	/forceset/tau_hip_flexion_l	/forceset/tau_hip_adduction_l	/forceset/tau_hip_rotation_l	/forceset/tau_knee_flexion_l	/forceset/tau_ankle_angle_l	/forceset/tau_subtalar_angle_l	/forceset/tau_lumbar_extension	lambda_cid13_p0	lambda_cid13_p1	lambda_cid13_p2	lambda_cid13_p3	lambda_cid13_p4	lambda_cid13_p5	lambda_cid14_p0	/jointset/ground_pelvis/pelvis_tilt/accel	/jointset/ground_pelvis/pelvis_tx/accel	/jointset/ground_pelvis/pelvis_ty/accel	/jointset/hip_l/hip_flexion_l/accel	/jointset/hip_l/hip_adduction_l/accel	/jointset/hip_l/hip_rotation_l/accel	/jointset/back/lumbar_extension/accel	/jointset/patellofemoral_l/patellar_flexion_l/accel	/jointset/knee_l/knee_flexion_l/accel	/jointset/knee_l/knee_adduction_l/accel	/jointset/knee_l/knee_rotation_l/accel	/jointset/ankle_l/ankle_angle_l/accel	/jointset/subtalar_l/subtalar_angle_l/accel	gamma_cid13_p0	gamma_cid13_p1	gamma_cid13_p2	gamma_cid13_p3	gamma_cid13_p4	gamma_cid13_p5	gamma_cid14_p0
1.5	-0.0816559139715225	-0.05250056370224603	0.7527839359198552	1.099262773398743	-0.3230004973077354	-0.03289878112221793	-0.8422204247241223	1.156863408006193	1.156863408006317	-0.04620635835326322	-0.1745270040919633	0.2234833219710582	0.04951767865667112	0.4719011263394315	0.2346813040949208	0.8635677463769882	-3.094900001897193	0.0126447391845314	-0.8626962681571079	0.7870177787837818	-2.95978009405032	-2.959780094050384	-0.2744317714805343	-5.668207461719151e-06	-0.5260642173913669	-0.1866757814023189	-0.2740332928169954	0.006460160362893983	-0.007311294802247874	-0.2814755923166846	0.08792622054106183	0.04136333708217946	0.3332776605706573	-12.49522484014979	-16.0459451443065	2.411884510728537	-19.69944421852001	-659.2135128925214	-70.25418510751967	-1.804482033991645	1.002905336937471	1.277893868916127	-1.001548502257465	-1.432293293745991	0.8433543752424894	-0.435411102632573	2.809188843458301	-1.907181353459278	-1.907181353459299	-0.1610594339251988	0.05773088670586986	-1.526183234897043	0.5749001220881863	7.342667487225364e-07	2.260282220741531e-06	-3.124536230072427e-06	6.376448066625326e-10	8.033192591145683e-07	-6.900348926664998e-07	7.811089422664028e-07
1.51	-0.07688742693549681	-0.05008994648713806	0.7613675953609049	1.068244787160162	-0.3228337982219215	-0.04154687104512949	-0.8342110518959734	1.127173619679926	1.12717361967994	-0.04896221554553525	-0.1745271840000819	0.218147348126187	0.0476775283533665	0.4816755163578652	0.2474272856096593	0.8529612849605449	-3.10832240044192	0.02069581446824497	-0.8668800385795157	0.8147876111363689	-2.97778039538739	-2.977780395387497	-0.2767465938795429	-3.015870669246498e-05	-0.5409621721506699	-0.1812979666334574	-0.2636862727583874	0.006875034631750189	-0.007594152604244747	-0.2741800009120124	0.08777808792172681	0.04180992327139536	0.3231225599508469	-11.95831016539333	-16.48892235943635	2.659570189525368	-19.66101862621145	-649.8035746555958	-70.17061853885743	-2.488213105408499	0.946662191610624	1.2707300369206	-1.120449740650259	-1.240900737434272	0.7862397218831374	-0.4028631280837848	2.750504074782877	-1.687032916987182	-1.687032916993464	-0.2672155581790768	-0.03307977366585454	-1.446213189898678	0.5275741431776818	7.512894896077447e-07	2.540933969167917e-06	-2.951915720491511e-06	2.576555020233553e-08	8.465088797851904e-07	-3.777616547654616e-07	7.763032730006622e-07
1.52	-0.072024804727817	-0.04755231350804903	0.7698391392319277	1.037103839415624	-0.3225865372598801	-0.05023539929546763	-0.8259260560155717	1.097315712661658	1.097315712661555	-0.05174132534486987	-0.1745277169642613	0.2126674724150334	0.0458928265955291	0.4907281606688521	0.2600844568911324	0.8411446323716066	-3.119492303090578	0.0287571144298469	-0.8707839336434751	0.8421423892339054	-2.99340383245071	-2.993403832450858	-0.2790822928901573	-7.62794230550586e-05	-0.5548445906480436	-0.1755860723088923	-0.253339252699744	0.007289908900628569	-0.007877010406432527	-0.2668844095073383	0.08762995530239445	0.04225650946064242	0.312967459331066	-11.41814673333485	-16.94306031172179	2.92113645286554	-19.70001252504234	-640.3629116398263	-70.19134776802521	-3.274682766719301	0.8585561954482774	1.260131822262908	-1.243586736756508	-0.9817941145320276	0.845399310820228	-0.3794360309428684	2.726177992448246	-1.431808498708996	-1.431808498708997	-0.1652347562463213	0.05340484327954591	-1.323075982511336	0.6417160332288756	8.320198873900271e-07	2.541506731609804e-06	-3.410568463566147e-06	-4.942284831677149e-08	9.50425319945269e-07	-2.712555416573221e-07	8.218123988282628e-07
1.53	-0.06707521729551437	-0.04488870883083906	0.7781865968475264	1.005862302814774	-0.3222588743053727	-0.05896019154566758	-0.817370033125618	1.067313463056615	1.06731346305661	-0.05454556470148567	-0.1745282461449758	0.2070538027197375	0.04416652852821778	0.4990603853392014	0.2726055670253542	0.8281525225454603	-3.128415445269674	0.03677737548651682	-0.8741753143927334	0.8689629609443833	-3.006624865691466	-3.006624865691474	-0.2817228993128763	-4.421237404800323e-05	-0.567709638911987	-0.1696150301586393	-0.2429389818049807	0.007774806932495391	-0.008151625120335395	-0.2597127518475479	0.08719898089355188	0.04228395483568924	0.302639565637305	-11.0108843928192	-17.1703030509786	3.121861497826377	-19.42408855212648	-631.1247163300078	-69.8294224555475	-4.162454016345727	0.8013105917614481	1.243398177572566	-1.355936528364992	-0.787514891990064	0.781124891863423	-0.3181740258217917	2.645112588557293	-1.204262059505334	-1.204262059484526	-0.3066699048919476	-0.02511815055347353	-1.24116190988808	0.5838432180747846	9.804396706254501e-07	2.244495571443164e-06	-4.539949037587299e-06	-2.311973197453311e-07	1.118864005812895e-06	-3.833769986416353e-07	9.207809944425379e-07
1.54	-0.06204615661871599	-0.04210083353857252	0.7863983506802994	0.9745435466676637	-0.3218508516625439	-0.0677187345891436	-0.8085487813529151	1.037191600854607	1.037191600854708	-0.05737484938623645	-0.1745290998123722	0.2013168940094913	0.04250174986483934	0.5066228095668674	0.2849385799024445	0.8140038758064668	-3.13493621234443	0.04482905209411472	-0.8775340922981766	0.8951881657832406	-3.017326351842081	-3.017326351841952	-0.2840913585198858	-0.0001411767756269905	-0.5794923936380215	-0.163282191522334	-0.2325387109101849	0.00825970496435308	-0.008426239833905957	-0.2525410941877472	0.08676800648470309	0.04231140021072125	0.292311671943574	-10.59526706876834	-17.41016026934497	3.337341208050381	-19.2490656258225	-621.7981652161425	-69.59078782202214	-5.151470622488382	0.7045961069117577	1.222512370836452	-1.474894119326002	-0.5013190936638976	0.8516824210058695	-0.3729154621797192	2.607104618124173	-0.9278990806810676	-0.9278990806810408	-0.1108053131043425	0.02759855316254333	-1.106617274929744	0.7140753304393825	1.175007866224225e-06	1.821244971182536e-06	-6.00638542020051e-06	-4.576542052800654e-07	1.325724371399325e-06	-4.946396446761032e-07	1.048181180294192e-06
1.55	-0.05694525236711581	-0.03919062936709701	0.7944630522664677	0.9431711093110906	-0.3213628086317551	-0.07650738087984363	-0.7994685973508942	1.006975151721147	1.006975151721218	-0.06023032242067568	-0.1745302385184481	0.1954674797743252	0.04090121046138216	0.5134192474114864	0.2970646446173417	0.7987590263928662	-3.139151490645184	0.05276710885998939	-0.8801759536110396	0.9207324053869853	-3.025534732312569	-3.025534732312408	-0.2869888819718162	-9.523273488281468e-05	-0.5901971058181122	-0.1567828762282694	-0.2220683461668857	0.007824288458133618	-0.008532747269920014	-0.2462736898025476	0.08677983012882358	0.04238836126533507	0.2819980883770265	-10.08409288713283	-17.69173982823953	3.563446485459445	-19.05039488811502	-613.1484425157213	-69.64303292990822	-6.238641615751421	0.6464954676078293	1.201834054346173	-1.575549333731979	-0.3214728374006357	0.7641192075375015	-0.2056855460660586	2.510649246498083	-0.7032556130947217	-0.7032556130901094	-0.3769151550027043	-0.00998342910823012	-1.023347690274069	0.625171805386297	1.422747058676422e-06	1.252544581248408e-06	-7.861168712713247e-06	-7.355930027197373e-07	1.576853194053074e-06	-6.049127911379232e-07	1.208339502723695e-06
1.56	-0.05178051816818945	-0.03616032844196639	0.802370051562229	0.9117685510436965	-0.3207955346526746	-0.08532161859971049	-0.790136457829834	0.9766894291664168	0.9766894291664391	-0.0631143085484025	-0.1745315329357486	0.1895168285172147	0.03936712664616498	0.5193887990309199	0.3089579306334663	0.7824634177250712	-3.140960394510723	0.06067524175222477	-0.8826523781329547	0.9455792695906573	-3.031181036097542	-3.03118103609735	-0.289793977174348	-0.0001723190396827869	-0.5997397980272179	-0.1499910738743507	-0.2115979814235431	0.007388871951948863	-0.008639254706193969	-0.2400062854173425	0.08679165377295063	0.04246532231999696	0.2716845048105114	-9.561390661054116	-17.98446742450485	3.801768206073348	-18.97038130742344	-604.3717026993633	-69.85580369008574	-7.418509515576542	0.5392188618748336	1.175956631081753	-1.685045970164902	-0.02004420662103335	0.8456976462782689	-0.3398281039898261	2.467629538109633	-0.4154837435780445	-0.4154837435780604	-0.09231966322452971	0.002992484054182815	-0.8742132807329059	0.7725727424103429	1.555909039881057e-06	8.233567113625719e-07	-8.889468596053842e-06	-9.030227561392739e-07	1.726425887515395e-06	-5.433618831165426e-07	1.274977721567166e-06
